<?xml version="1.0" encoding="utf-8"?>
<!-- Generator: Adobe Illustrator 21.1.0, SVG Export Plug-In . SVG Version: 6.00 Build 0)  -->
<svg version="1.1" id="Layer_1" xmlns="http://www.w3.org/2000/svg" xmlns:xlink="http://www.w3.org/1999/xlink" x="0px" y="0px"
	 viewBox="0 0 800 800" style="enable-background:new 0 0 800 800;" xml:space="preserve">
<style type="text/css">
	.st0{fill:#E74D3D;}
	.st1{opacity:0.15;}
	.st2{fill:#FFFFFF;}
</style>
<circle class="st0" cx="400" cy="400" r="362.5"/>
<g>
	<g class="st1">
		<polygon points="386,258.8 354.2,322.5 274.6,322.5 318.4,390.1 282.6,449.8 167.2,258.8 		"/>
		<polygon points="453.7,219 521.3,250.8 342.2,601 278.6,569.2 		"/>
		<polygon points="465.6,445.8 497.4,382.1 612.8,565.2 401.9,565.2 429.8,509.5 505.4,509.5 		"/>
	</g>
	<g>
		<g>
			<polygon class="st2" points="396,248.8 364.2,312.5 284.6,312.5 328.4,380.1 292.6,439.8 177.2,248.8 			"/>
			<polygon class="st2" points="463.7,209 531.3,240.8 352.2,591 288.6,559.2 			"/>
			<polygon class="st2" points="475.6,435.8 507.4,372.1 622.8,555.2 411.9,555.2 439.8,499.5 515.4,499.5 			"/>
		</g>
	</g>
</g>
</svg>
